<svg id="tds-icon-globe-filled" viewBox="0 0 24 24" xmlns="http://www.w3.org/2000/svg">
  <path fill="black" d="M7.111 14H4.252A8 8 0 0 1 4 12c0-.69.088-1.36.252-2h2.859A18 18 0 0 0 7 12q0 1.03.111 2m.353 2c.318 1.303.788 2.446 1.366 3.348A8.03 8.03 0 0 1 5.07 16h2.393Zm-4.843-.522A10 10 0 0 0 12 22c5.523 0 10-4.477 10-10S17.523 2 12 2C7.7 2 4.034 4.714 2.621 8.522a1 1 0 0 0-.105.298A10 10 0 0 0 2 12c0 1.111.181 2.18.516 3.18q.03.16.105.298M9.533 16h4.934a9.5 9.5 0 0 1-.701 1.786C12.992 19.256 12.269 19.5 12 19.5s-.992-.243-1.766-1.714A9.5 9.5 0 0 1 9.533 16m5.342-2h-5.75A16 16 0 0 1 9 12q.002-1.049.125-2h5.75a16 16 0 0 1 0 4m1.662 2h2.393a8.03 8.03 0 0 1-3.76 3.348c.578-.902 1.048-2.045 1.367-3.348m3.211-2h-2.859a18 18 0 0 0 0-4h2.859A8 8 0 0 1 20 12a8 8 0 0 1-.252 2m-9.514-7.786C11.008 4.744 11.731 4.5 12 4.5s.992.243 1.766 1.714A9.5 9.5 0 0 1 14.467 8H9.533a9.5 9.5 0 0 1 .701-1.786M16.537 8c-.32-1.303-.79-2.446-1.367-3.348A8.03 8.03 0 0 1 18.93 8zM5.07 8a8.03 8.03 0 0 1 3.76-3.347c-.578.9-1.048 2.044-1.367 3.347z"></path>
</svg>